# xmcd CD database file
#
# Track frame offsets:
#	150
#	21225
#	39449
#	60525
#
# Disc length: 1049 seconds
#
# Revision: 0
# Processed by: cddbd v1.5.1PL2 Copyright (c) Steve Scherf et al.
# Submitted via: CDex 1.51
#
DISCID=2a041704
DTITLE=東方神起 - STAY WITH ME TONIGHT
DYEAR=1900
DGENRE=R&B
TTITLE0=Stay With Me Tonight
TTITLE1=Try My Love
TTITLE2=Stay With Me Tonight(Less Vocal)
TTITLE3=Try My Love(Less Vocal)
EXTD=
EXTT0=
EXTT1=
EXTT2=
EXTT3=
PLAYORDER=
